<svg id="visual" viewBox="0 0 900 450" width="900" height="450" xmlns="http://www.w3.org/2000/svg" xmlns:xlink="http://www.w3.org/1999/xlink" version="1.1"><rect x="0" y="0" width="900" height="450" fill="#f69045"></rect><path d="M0 317L113 280L225 298L338 294L450 267L563 296L675 273L788 277L900 252L900 451L788 451L675 451L563 451L450 451L338 451L225 451L113 451L0 451Z" fill="#e47a16"></path><path d="M0 310L113 342L225 297L338 316L450 341L563 284L675 301L788 301L900 286L900 451L788 451L675 451L563 451L450 451L338 451L225 451L113 451L0 451Z" fill="#e9911a"></path><path d="M0 341L113 357L225 361L338 376L450 334L563 364L675 322L788 325L900 345L900 451L788 451L675 451L563 451L450 451L338 451L225 451L113 451L0 451Z" fill="#eca824"></path><path d="M0 401L113 404L225 392L338 361L450 360L563 362L675 359L788 390L900 403L900 451L788 451L675 451L563 451L450 451L338 451L225 451L113 451L0 451Z" fill="#eebf33"></path><path d="M0 428L113 431L225 411L338 411L450 402L563 428L675 396L788 433L900 391L900 451L788 451L675 451L563 451L450 451L338 451L225 451L113 451L0 451Z" fill="#efd546"></path></svg>